<svg width="24" height="24" viewBox="0 0 24 24" fill="none" xmlns="http://www.w3.org/2000/svg">
<path d="M9.9224 15.2377L10.4344 15.1495C10.5336 15.1319 10.652 15.1063 10.7888 15.071C12.48 14.6464 13.6 13.3805 13.6 12.012C13.6 10.3015 11.8592 8.80722 9.6 8.80722C7.3408 8.80722 5.6 10.3015 5.6 12.012C5.6 12.9879 6.1616 13.9173 7.1448 14.5358L7.1736 14.5519L8 15.0085V17.2223L9.9224 15.2377ZM10.708 16.7279L7.7744 19.7565C7.66353 19.871 7.52105 19.9498 7.36521 19.9827C7.20936 20.0157 7.04724 20.0013 6.89962 19.9414C6.75199 19.8815 6.62558 19.7788 6.53657 19.6465C6.44756 19.5142 6.40001 19.3583 6.4 19.1988V15.954C6.36426 15.9346 6.32905 15.9143 6.2944 15.8931C4.9032 15.0182 4 13.6056 4 12.012C4 9.35685 6.5072 7.20481 9.6 7.20481C12.6928 7.20481 15.2 9.35685 15.2 12.012C15.2 14.1961 13.5032 16.0405 11.1792 16.6254C11.0234 16.6653 10.8663 16.6995 10.708 16.7279ZM9.5488 6.40361C10.5168 4.96705 12.328 4 14.4 4C17.4928 4 20 6.15203 20 8.80722C20 10.4008 19.096 11.8133 17.7056 12.6883C17.671 12.7095 17.6357 12.7298 17.6 12.7491V15.994C17.6 16.1535 17.5524 16.3094 17.4634 16.4417C17.3744 16.574 17.248 16.6767 17.1004 16.7366C16.9528 16.7965 16.7906 16.8109 16.6348 16.7779C16.4789 16.745 16.3365 16.6662 16.2256 16.5517L14.8376 15.1191L15.672 13.6785L16 14.0174V11.8037L16.8264 11.347L16.8552 11.331C17.8392 10.7125 18.4 9.78309 18.4 8.80722C18.4 7.09665 16.6592 5.60241 14.4 5.60241C13.376 5.60241 12.4592 5.90927 11.7624 6.40361H9.5488Z" fill="#B8B8B8"/>
</svg>
