<svg width="24" height="24" viewBox="0 0 24 24" fill="none" xmlns="http://www.w3.org/2000/svg">
<path d="M18.8918 6.77407L11.3128 4.09929C11.0584 4.00901 10.7854 3.97969 10.5168 4.01381C10.2482 4.04794 9.99211 4.1445 9.77022 4.2953C9.54833 4.44609 9.36723 4.64666 9.24229 4.87996C9.11736 5.11326 9.0523 5.37239 9.05263 5.63533V10.6456C8.54305 10.3509 7.96159 10.1937 7.36842 10.1903C5.51074 10.1903 4 11.6568 4 13.4602C4 15.2635 5.51074 16.7301 7.36842 16.7301C9.22611 16.7301 10.7368 15.2635 10.7368 13.4602V5.63533L18.3158 8.3101V13.9147C17.806 13.6206 17.2246 13.4637 16.6316 13.4602C14.7739 13.4602 13.2632 14.9267 13.2632 16.7301C13.2632 18.5334 14.7739 20 16.6316 20C18.4893 20 20 18.5334 20 16.7301V8.3101C20 7.62506 19.5545 7.00705 18.8918 6.77407ZM7.36842 15.0951C6.43958 15.0951 5.68421 14.3619 5.68421 13.4602C5.68421 12.5585 6.43958 11.8252 7.36842 11.8252C8.29726 11.8252 9.05263 12.5585 9.05263 13.4602C9.05263 14.3619 8.29726 15.0951 7.36842 15.0951ZM16.6316 18.365C15.7027 18.365 14.9474 17.6318 14.9474 16.7301C14.9474 15.8284 15.7027 15.0951 16.6316 15.0951C17.5604 15.0951 18.3158 15.8284 18.3158 16.7301C18.3158 17.6318 17.5604 18.365 16.6316 18.365Z" fill="#B8B8B8"/>
</svg>
