<svg width="24" height="24" viewBox="0 0 24 24" fill="none" xmlns="http://www.w3.org/2000/svg">
<path d="M19.3723 17.0573C18.9709 16.1591 18.3885 15.3433 17.6574 14.6553C16.9285 13.9652 16.0651 13.4151 15.1149 13.0352C15.1064 13.0312 15.0979 13.0291 15.0893 13.0251C16.4149 12.1206 17.2766 10.6472 17.2766 8.98492C17.2766 6.23116 14.9149 4 12 4C9.08513 4 6.72344 6.23116 6.72344 8.98492C6.72344 10.6472 7.58514 12.1206 8.91066 13.0271C8.90215 13.0312 8.89364 13.0332 8.88513 13.0372C7.93194 13.4171 7.07663 13.9618 6.34259 14.6573C5.61219 15.3459 5.02984 16.1615 4.62771 17.0593C4.23265 17.9382 4.01959 18.8805 4.00005 19.8352C3.99949 19.8566 4.00347 19.878 4.01177 19.8979C4.02007 19.9179 4.03251 19.9361 4.04838 19.9515C4.06424 19.9668 4.0832 19.9791 4.10413 19.9874C4.12506 19.9957 4.14755 20 4.17026 20H5.44685C5.54047 20 5.61494 19.9296 5.61706 19.8432C5.65962 18.2915 6.31919 16.8382 7.48514 15.7367C8.69151 14.597 10.2936 13.9698 12 13.9698C13.7064 13.9698 15.3085 14.597 16.5149 15.7367C17.6808 16.8382 18.3404 18.2915 18.3829 19.8432C18.3851 19.9317 18.4595 20 18.5531 20H19.8297C19.8524 20 19.8749 19.9957 19.8959 19.9874C19.9168 19.9791 19.9358 19.9668 19.9516 19.9515C19.9675 19.9361 19.9799 19.9179 19.9882 19.8979C19.9965 19.878 20.0005 19.8566 19.9999 19.8352C19.9787 18.8744 19.768 17.9397 19.3723 17.0573V17.0573ZM12 12.4422C11.0234 12.4422 10.1043 12.0824 9.41278 11.4291C8.7213 10.7759 8.34045 9.90754 8.34045 8.98492C8.34045 8.06231 8.7213 7.19397 9.41278 6.5407C10.1043 5.88744 11.0234 5.52764 12 5.52764C12.9766 5.52764 13.8957 5.88744 14.5872 6.5407C15.2787 7.19397 15.6595 8.06231 15.6595 8.98492C15.6595 9.90754 15.2787 10.7759 14.5872 11.4291C13.8957 12.0824 12.9766 12.4422 12 12.4422Z" fill="#B8B8B8"/>
</svg>
