<svg width="24" height="24" viewBox="0 0 24 24" fill="none" xmlns="http://www.w3.org/2000/svg">
<path d="M5.17379 15.9975C4.8229 15.4128 4.55014 14.7877 4.362 14.137C4.77147 13.9364 5.11535 13.6304 5.35559 13.2531C5.59584 12.8758 5.72308 12.4418 5.72325 11.9991C5.72343 11.5564 5.59652 11.1223 5.35656 10.7449C5.11661 10.3674 4.77297 10.0612 4.36366 9.86021C4.73887 8.55283 5.45329 7.35902 6.43961 6.39123C6.82483 6.63256 7.27183 6.76649 7.73114 6.77818C8.19046 6.78987 8.64418 6.67888 9.04208 6.45748C9.43999 6.23608 9.76657 5.91291 9.98568 5.52373C10.2048 5.13456 10.3079 4.69455 10.2836 4.25241C11.6466 3.91296 13.0769 3.91351 14.4396 4.25401C14.4155 4.69614 14.5188 5.13608 14.7381 5.52515C14.9574 5.91421 15.2841 6.23723 15.682 6.45846C16.08 6.67969 16.5338 6.7905 16.9931 6.77864C17.4524 6.76677 17.8993 6.63269 18.2844 6.39123C18.7751 6.87343 19.2005 7.41364 19.5502 7.99894C19.9096 8.59803 20.1786 9.22272 20.362 9.85941C19.9525 10.0601 19.6087 10.366 19.3684 10.7433C19.1282 11.1207 19.0009 11.5547 19.0007 11.9973C19.0006 12.44 19.1275 12.8741 19.3674 13.2516C19.6074 13.6291 19.951 13.9353 20.3603 14.1363C19.9851 15.4436 19.2707 16.6374 18.2844 17.6052C17.8992 17.3639 17.4522 17.23 16.9929 17.2183C16.5335 17.2066 16.0798 17.3176 15.6819 17.539C15.284 17.7604 14.9574 18.0836 14.7383 18.4727C14.5192 18.8619 14.4161 19.3019 14.4404 19.7441C13.0774 20.0835 11.6471 20.0829 10.2844 19.7425C10.3085 19.3003 10.2052 18.8604 9.98592 18.4713C9.76664 18.0822 9.43993 17.7592 9.04195 17.538C8.64397 17.3168 8.19022 17.206 7.73094 17.2178C7.27165 17.2297 6.82472 17.3638 6.43961 17.6052C5.94904 17.1229 5.52373 16.5827 5.17379 15.9975ZM9.87186 16.1543C10.7564 16.6459 11.4214 17.4349 11.7395 18.3699C12.1537 18.4075 12.5695 18.4083 12.9837 18.3707C13.3019 17.4355 13.9673 16.6466 14.8521 16.1551C15.7363 15.6621 16.7783 15.5012 17.7781 15.7032C18.0188 15.3768 18.2263 15.0289 18.3989 14.665C17.7178 13.9318 17.3416 12.9822 17.3423 11.9982C17.3423 10.9904 17.7324 10.049 18.3989 9.3315C18.2251 8.96769 18.0167 8.62014 17.7764 8.29329C16.7773 8.4951 15.736 8.33446 14.8521 7.84217C13.9676 7.35055 13.3026 6.56158 12.9845 5.62656C12.5703 5.58897 12.1545 5.58817 11.7403 5.62576C11.4221 6.56091 10.7567 7.3499 9.87186 7.84137C8.98767 8.33433 7.94571 8.49527 6.94594 8.29329C6.70569 8.61986 6.49782 8.96746 6.32506 9.3315C7.00618 10.0646 7.38245 11.0142 7.38171 11.9982C7.38268 12.9823 7.00638 13.932 6.32506 14.665C6.49893 15.0288 6.70733 15.3763 6.9476 15.7032C7.94674 15.5014 8.98803 15.662 9.87186 16.1543ZM12.362 14.3978C11.7016 14.3978 11.0682 14.145 10.6012 13.695C10.1342 13.245 9.87186 12.6346 9.87186 11.9982C9.87186 11.3618 10.1342 10.7515 10.6012 10.3015C11.0682 9.85147 11.7016 9.59866 12.362 9.59866C13.0224 9.59866 13.6558 9.85147 14.1228 10.3015C14.5898 10.7515 14.8521 11.3618 14.8521 11.9982C14.8521 12.6346 14.5898 13.245 14.1228 13.695C13.6558 14.145 13.0224 14.3978 12.362 14.3978ZM12.362 12.7981C12.5821 12.7981 12.7933 12.7138 12.9489 12.5638C13.1046 12.4138 13.192 12.2104 13.192 11.9982C13.192 11.7861 13.1046 11.5826 12.9489 11.4326C12.7933 11.2826 12.5821 11.1984 12.362 11.1984C12.1419 11.1984 11.9307 11.2826 11.7751 11.4326C11.6194 11.5826 11.532 11.7861 11.532 11.9982C11.532 12.2104 11.6194 12.4138 11.7751 12.5638C11.9307 12.7138 12.1419 12.7981 12.362 12.7981Z" fill="#B8B8B8"/>
</svg>
