<svg width="181" height="29" viewBox="0 0 181 29" fill="none" xmlns="http://www.w3.org/2000/svg">
<path d="M50.14 21.12C49.1 21.12 48.1 20.9533 47.14 20.62C46.1933 20.2867 45.46 19.8467 44.94 19.3L45.52 18.16C46.0267 18.6667 46.7 19.08 47.54 19.4C48.38 19.7067 49.2467 19.86 50.14 19.86C51.3933 19.86 52.3333 19.6333 52.96 19.18C53.5867 18.7133 53.9 18.1133 53.9 17.38C53.9 16.82 53.7267 16.3733 53.38 16.04C53.0467 15.7067 52.6333 15.4533 52.14 15.28C51.6467 15.0933 50.96 14.8933 50.08 14.68C49.0267 14.4133 48.1867 14.16 47.56 13.92C46.9333 13.6667 46.3933 13.2867 45.94 12.78C45.5 12.2733 45.28 11.5867 45.28 10.72C45.28 10.0133 45.4667 9.37333 45.84 8.8C46.2133 8.21333 46.7867 7.74667 47.56 7.4C48.3333 7.05333 49.2933 6.88 50.44 6.88C51.24 6.88 52.02 6.99333 52.78 7.22C53.5533 7.43333 54.22 7.73333 54.78 8.12L54.28 9.3C53.6933 8.91333 53.0667 8.62667 52.4 8.44C51.7333 8.24 51.08 8.14 50.44 8.14C49.2133 8.14 48.2867 8.38 47.66 8.86C47.0467 9.32667 46.74 9.93333 46.74 10.68C46.74 11.24 46.9067 11.6933 47.24 12.04C47.5867 12.3733 48.0133 12.6333 48.52 12.82C49.04 12.9933 49.7333 13.1867 50.6 13.4C51.6267 13.6533 52.4533 13.9067 53.08 14.16C53.72 14.4 54.26 14.7733 54.7 15.28C55.14 15.7733 55.36 16.4467 55.36 17.3C55.36 18.0067 55.1667 18.6533 54.78 19.24C54.4067 19.8133 53.8267 20.2733 53.04 20.62C52.2533 20.9533 51.2867 21.12 50.14 21.12Z" fill="white"/>
<path d="M64.7047 21.12C63.318 21.12 62.058 20.8133 60.9247 20.2C59.8047 19.5733 58.9247 18.72 58.2847 17.64C57.658 16.56 57.3447 15.3467 57.3447 14C57.3447 12.6533 57.658 11.44 58.2847 10.36C58.9247 9.28 59.8047 8.43333 60.9247 7.82C62.058 7.19333 63.318 6.88 64.7047 6.88C66.0914 6.88 67.338 7.18667 68.4447 7.8C69.5647 8.41333 70.4447 9.26667 71.0847 10.36C71.7247 11.44 72.0447 12.6533 72.0447 14C72.0447 15.3467 71.7247 16.5667 71.0847 17.66C70.4447 18.74 69.5647 19.5867 68.4447 20.2C67.338 20.8133 66.0914 21.12 64.7047 21.12ZM64.7047 19.8C65.8114 19.8 66.8114 19.5533 67.7047 19.06C68.598 18.5533 69.298 17.86 69.8047 16.98C70.3114 16.0867 70.5647 15.0933 70.5647 14C70.5647 12.9067 70.3114 11.92 69.8047 11.04C69.298 10.1467 68.598 9.45333 67.7047 8.96C66.8114 8.45333 65.8114 8.2 64.7047 8.2C63.598 8.2 62.5914 8.45333 61.6847 8.96C60.7914 9.45333 60.0847 10.1467 59.5647 11.04C59.058 11.92 58.8047 12.9067 58.8047 14C58.8047 15.0933 59.058 16.0867 59.5647 16.98C60.0847 17.86 60.7914 18.5533 61.6847 19.06C62.5914 19.5533 63.598 19.8 64.7047 19.8Z" fill="white"/>
<path d="M81.442 21.12C80.0554 21.12 78.802 20.8133 77.682 20.2C76.5754 19.5867 75.702 18.74 75.062 17.66C74.4354 16.5667 74.122 15.3467 74.122 14C74.122 12.6533 74.4354 11.44 75.062 10.36C75.702 9.26667 76.582 8.41333 77.702 7.8C78.822 7.18667 80.0754 6.88 81.462 6.88C82.502 6.88 83.462 7.05333 84.342 7.4C85.222 7.74667 85.9687 8.25333 86.582 8.92L85.642 9.86C84.5487 8.75333 83.1687 8.2 81.502 8.2C80.3954 8.2 79.3887 8.45333 78.482 8.96C77.5754 9.46667 76.862 10.16 76.342 11.04C75.8354 11.92 75.582 12.9067 75.582 14C75.582 15.0933 75.8354 16.08 76.342 16.96C76.862 17.84 77.5754 18.5333 78.482 19.04C79.3887 19.5467 80.3954 19.8 81.502 19.8C83.182 19.8 84.562 19.24 85.642 18.12L86.582 19.06C85.9687 19.7267 85.2154 20.24 84.322 20.6C83.442 20.9467 82.482 21.12 81.442 21.12Z" fill="white"/>
<path d="M89.737 7H91.217V21H89.737V7Z" fill="white"/>
<path d="M104.552 17.26H96.7522L95.0722 21H93.5322L99.9322 7H101.392L107.792 21H106.232L104.552 17.26ZM104.012 16.06L100.652 8.54L97.2922 16.06H104.012Z" fill="white"/>
<path d="M110.108 7H111.588V19.72H119.428V21H110.108V7Z" fill="white"/>
<path d="M132.36 7C134.147 7 135.547 7.42667 136.56 8.28C137.573 9.13333 138.08 10.3067 138.08 11.8C138.08 13.2933 137.573 14.4667 136.56 15.32C135.547 16.16 134.147 16.58 132.36 16.58H128.6V21H127.12V7H132.36ZM132.32 15.28C133.707 15.28 134.767 14.98 135.5 14.38C136.233 13.7667 136.6 12.9067 136.6 11.8C136.6 10.6667 136.233 9.8 135.5 9.2C134.767 8.58667 133.707 8.28 132.32 8.28H128.6V15.28H132.32Z" fill="white"/>
<path d="M149.357 17.26H141.557L139.877 21H138.337L144.737 7H146.197L152.597 21H151.037L149.357 17.26ZM148.817 16.06L145.457 8.54L142.097 16.06H148.817Z" fill="white"/>
<path d="M164.577 14H165.997V19.34C165.344 19.9133 164.571 20.3533 163.678 20.66C162.784 20.9667 161.844 21.12 160.857 21.12C159.457 21.12 158.197 20.8133 157.077 20.2C155.957 19.5867 155.077 18.74 154.438 17.66C153.798 16.5667 153.477 15.3467 153.477 14C153.477 12.6533 153.798 11.44 154.438 10.36C155.077 9.26667 155.957 8.41333 157.077 7.8C158.197 7.18667 159.464 6.88 160.878 6.88C161.944 6.88 162.924 7.05333 163.818 7.4C164.711 7.73333 165.464 8.23333 166.077 8.9L165.158 9.84C164.051 8.74667 162.644 8.2 160.938 8.2C159.804 8.2 158.777 8.45333 157.857 8.96C156.951 9.45333 156.237 10.1467 155.717 11.04C155.197 11.92 154.938 12.9067 154.938 14C154.938 15.0933 155.197 16.08 155.717 16.96C156.237 17.84 156.951 18.5333 157.857 19.04C158.764 19.5467 159.784 19.8 160.917 19.8C162.357 19.8 163.577 19.44 164.577 18.72V14Z" fill="white"/>
<path d="M180.086 19.72V21H170.186V7H179.786V8.28H171.666V13.26H178.906V14.52H171.666V19.72H180.086Z" fill="white"/>
<path d="M16 11.3824C14.427 11.3824 13.146 12.6634 13.146 14.2364C13.146 15.8094 14.427 17.0904 16 17.0904C17.573 17.0904 18.854 15.8094 18.854 14.2364C18.854 12.6634 17.573 11.3824 16 11.3824ZM8.01 19.9084L7.38 19.7524C2.692 18.5644 0 16.5544 0 14.2314C0 11.9084 2.693 9.89836 7.38 8.71036L8.01 8.55436L8.187 9.17936C8.66257 10.8164 9.27058 12.412 10.005 13.9504L10.14 14.2314L10.005 14.5174C9.26904 16.0551 8.66099 17.6508 8.187 19.2884L8.01 19.9084ZM7.089 10.1684C3.526 11.1684 1.339 12.7044 1.339 14.2314C1.339 15.7584 3.527 17.2884 7.089 18.2944C7.52565 16.907 8.05278 15.5498 8.667 14.2314C8.05192 12.9133 7.52477 11.556 7.089 10.1684ZM23.99 19.9084L23.813 19.2834C23.3383 17.6477 22.7302 16.0537 21.995 14.5174L21.86 14.2314L21.995 13.9454C22.731 12.4076 23.339 10.8119 23.813 9.17436L23.99 8.55436L24.62 8.71036C29.308 9.89836 32 11.9084 32 14.2314C32 16.5544 29.307 18.5644 24.62 19.7524L23.99 19.9084ZM23.333 14.2314C23.9493 15.5489 24.4764 16.9063 24.911 18.2944C28.479 17.2894 30.661 15.7584 30.661 14.2314C30.661 12.7044 28.473 11.1744 24.911 10.1684C24.4733 11.5554 23.9462 12.9125 23.333 14.2314ZM7.078 10.1634L6.901 9.53836C5.583 4.89236 5.984 1.55936 8 0.397362C9.979 -0.743638 13.151 0.605362 16.479 4.02236L16.932 4.48636L16.479 4.95036C15.2972 6.17998 14.2173 7.50368 13.25 8.90836L13.068 9.16336L12.755 9.18936C11.0535 9.32367 9.36563 9.59556 7.708 10.0024L7.078 10.1634ZM9.609 1.32536C9.25 1.32536 8.932 1.39836 8.666 1.55436C7.343 2.32036 7.109 4.97636 8.02 8.55936C9.44145 8.2414 10.8822 8.01692 12.333 7.88736C13.1683 6.69775 14.0816 5.56492 15.067 4.49636C12.989 2.47036 11.02 1.32536 9.609 1.32536ZM22.396 28.4704C22.391 28.4704 22.391 28.4704 22.396 28.4704C20.495 28.4704 18.052 27.0434 15.521 24.4394L15.068 23.9754L15.521 23.5114C16.7028 22.2817 17.7827 20.958 18.75 19.5534L18.927 19.2984L19.24 19.2674C20.9437 19.1376 22.6336 18.8656 24.292 18.4544L24.922 18.2984L25.099 18.9234C26.417 23.5694 26.016 26.8974 24 28.0584C23.5126 28.3385 22.9581 28.4816 22.396 28.4704ZM16.932 23.9654C19.01 25.9914 20.979 27.1374 22.39 27.1374H22.395C22.749 27.1374 23.067 27.0594 23.333 26.9084C24.656 26.1424 24.896 23.4864 23.979 19.9034C22.5578 20.2217 21.1169 20.4445 19.666 20.5704C18.8308 21.7616 17.9174 22.8951 16.932 23.9654ZM24.922 10.1634L24.292 10.0024C22.6324 9.59691 20.943 9.32504 19.24 9.18936L18.927 9.16336L18.75 8.90836C17.7827 7.50368 16.7028 6.17998 15.521 4.95036L15.068 4.48636L15.521 4.02236C18.849 0.605362 22.021 -0.743638 24 0.397362C26.016 1.55836 26.417 4.89236 25.099 9.53836L24.922 10.1634ZM19.667 7.88736C21.1178 8.01657 22.5586 8.24105 23.98 8.55936C24.897 4.97636 24.657 2.31936 23.334 1.55436C22.016 0.794362 19.537 1.96036 16.933 4.49736C17.9157 5.56822 18.8289 6.70086 19.667 7.88836V7.88736ZM9.609 28.4704C9.046 28.4804 8.489 28.3404 8 28.0594C5.984 26.8984 5.583 23.5694 6.901 18.9244L7.078 18.2994L7.708 18.4554C9.25 18.8464 10.948 19.1164 12.755 19.2684L13.068 19.2994L13.245 19.5544C14.2123 20.959 15.2922 22.2827 16.474 23.5124L16.927 23.9764L16.474 24.4404C13.948 27.0444 11.505 28.4714 9.609 28.4714V28.4704ZM8.021 19.9034C7.104 23.4864 7.344 26.1434 8.667 26.9084C9.985 27.6584 12.459 26.5024 15.068 23.9654C14.0826 22.8951 13.1692 21.7606 12.334 20.5694C10.883 20.4439 9.44211 20.222 8.021 19.9034ZM16 20.7414C14.901 20.7414 13.776 20.6944 12.646 20.6004L12.333 20.5744L12.151 20.3144C11.5127 19.3972 10.9132 18.4537 10.354 17.4864C9.79365 16.5189 9.27419 15.5284 8.797 14.5174L8.662 14.2314L8.797 13.9454C9.75303 11.9237 10.8749 9.98478 12.151 8.14836L12.333 7.88836L12.646 7.86236C14.878 7.67436 17.122 7.67436 19.354 7.86236L19.667 7.88836L19.849 8.14836C21.1268 9.98373 22.2487 11.9228 23.203 13.9454L23.338 14.2314L23.203 14.5174C22.2506 16.5409 21.1286 18.4802 19.849 20.3144L19.667 20.5744L19.354 20.6004C18.2384 20.6937 17.1195 20.7408 16 20.7414ZM13.073 19.2934C15.042 19.4444 16.958 19.4444 18.932 19.2934C20.0329 17.6813 21.0113 15.9889 21.859 14.2304C21.0149 12.469 20.0346 10.7762 18.927 9.16736C16.9786 9.01636 15.0214 9.01636 13.073 9.16736C11.9646 10.7757 10.9843 12.4685 10.141 14.2304C10.9889 15.9897 11.9691 17.6823 13.073 19.2934Z" fill="white"/>
</svg>
